<?xml version="1.0" standalone="no"?>
<!DOCTYPE svg PUBLIC "-//W3C//DTD SVG 20010904//EN"
 "http://www.w3.org/TR/2001/REC-SVG-20010904/DTD/svg10.dtd">
<svg version="1.0" xmlns="http://www.w3.org/2000/svg"
 width="700.000000pt" height="700.000000pt" viewBox="0 0 700.000000 700.000000"
 preserveAspectRatio="xMidYMid meet">
<metadata>
Created by potrace 1.11, written by Peter Selinger 2001-2013
</metadata>
<g transform="translate(0.000000,700.000000) scale(0.100000,-0.100000)"
fill="#000000" stroke="none">
<path d="M5533 6229 c-91 -12 -176 -65 -231 -145 -46 -67 -52 -124 -52 -491
l0 -343 -2480 -1 c-1364 -1 -2483 -2 -2487 -3 -5 -1 -24 -6 -43 -10 -83 -20
-169 -94 -212 -183 -22 -45 -23 -60 -23 -238 0 -185 1 -192 27 -247 41 -88
114 -150 218 -184 14 -4 1143 -8 2510 -9 l2485 0 5 -370 5 -370 27 -56 c60
-121 180 -192 312 -185 133 8 111 -10 753 629 665 663 647 641 647 787 1 146
23 119 -638 781 -431 431 -594 587 -630 606 -59 30 -124 41 -193 32z"/>
<path d="M1327 3594 c-17 -6 -45 -17 -62 -23 -17 -7 -284 -266 -617 -599 -667
-667 -643 -638 -642 -787 1 -142 -19 -119 638 -776 519 -520 588 -585 643
-611 161 -76 352 -5 436 162 21 44 22 55 25 418 l3 372 2477 1 c1362 0 2490 3
2506 5 76 13 168 75 211 144 46 73 56 127 54 290 -1 171 -13 230 -60 295 -38
53 -86 90 -151 117 l-53 21 -2490 1 -2490 1 -2 55 c-2 30 -4 197 -5 370 -3
296 -4 318 -24 361 -26 55 -76 114 -125 145 -79 49 -196 66 -272 38z"/>
</g>
</svg>
